<svg width="100" height="100" viewBox="0 0 100 100" fill="none" xmlns="http://www.w3.org/2000/svg">
<rect width="100" height="100" rx="10" fill="#242424"/>
<path d="M20.6436 23.8729C20.4823 23.9789 20.3328 24.1027 20.1977 24.2423L12.6537 32.0312C11.6029 33.1182 11.0088 34.5887 11.0001 36.1245C10.9914 37.6603 11.5686 39.1379 12.607 40.2376L12.6563 40.2911L12.8896 40.5561L13.7866 41.5571C14.5643 42.4217 15.6817 43.6663 17.0608 45.1812C20.5899 49.0632 24.1581 52.907 27.7649 56.712C35.9777 65.3654 45.8419 75.2661 51.7189 79.3452C58.3374 83.9596 64.3518 86.5586 68.7434 88.0066C70.9418 88.7293 72.7306 89.1683 73.9931 89.4252C74.6187 89.5537 75.2481 89.6618 75.8803 89.7491L75.9711 89.7598C77.721 90.0462 79.2686 90.097 80.6452 89.7999C82.0001 89.5244 83.2436 88.8353 84.215 87.8219L86.0297 85.9483C86.1645 85.8091 86.2812 85.6566 86.3823 85.496C87.2002 84.7299 87.8534 83.7953 88.3 82.7524C88.7465 81.7096 88.9763 80.5817 88.9747 79.4415C88.6714 75.9807 85.5086 73.9813 82.7088 72.2148C81.2997 71.4936 80.0418 70.4932 79.0068 69.2705L76.9458 64.3028H76.964C77.6859 64.3028 78.3783 64.0067 78.8888 63.4796C79.3992 62.9526 79.686 62.2377 79.686 61.4923C79.686 60.747 79.3992 60.0321 78.8888 59.5051C78.3783 58.978 77.6859 58.6819 76.964 58.6819H74.6126L72.9431 54.6563C73.5324 54.415 74.0215 53.9689 74.3263 53.395C74.631 52.8211 74.7322 52.1554 74.6123 51.5127C74.4925 50.8701 74.1592 50.2907 73.6699 49.8746C73.1806 49.4586 72.566 49.2318 71.9321 49.2336H70.6929L69.3137 45.9119C70.0257 45.88 70.6972 45.561 71.1839 45.0235C71.6706 44.486 71.9338 43.7728 71.9168 43.0372C71.8998 42.3016 71.6041 41.6022 71.0932 41.0893C70.5822 40.5763 69.8968 40.2907 69.1841 40.2938H66.9831L65.9177 37.7243C65.7569 37.3228 65.6584 37.0337 65.5755 36.7874C65.2299 35.6181 64.585 34.5667 63.7089 33.7442L62.3609 32.3497C61.7396 31.7322 60.9879 31.2722 60.1651 31.006V29.8016C58.5448 24.7562 52.6341 22.9977 48.6703 26.0677L43.1536 20.2595C43.6496 19.7427 44.0417 19.1298 44.3076 18.456C44.5734 17.7822 44.7076 17.0608 44.7026 16.3333C44.6975 15.6058 44.5533 14.8865 44.2781 14.2167C44.0029 13.5469 43.6023 12.9399 43.0991 12.4305C41.5865 10.874 39.5379 10 37.4023 10C35.2667 10 33.2181 10.874 31.7054 12.4305L20.6436 23.8729ZM45.1731 48.444L45.1809 46.4499C45.1809 41.8997 43.4699 37.5637 40.4108 34.325L29.2374 22.5587L35.3685 16.2205C35.6439 15.9351 35.975 15.7137 36.3399 15.5709C36.7047 15.4282 37.0949 15.3674 37.4843 15.3927C37.8737 15.4181 38.2534 15.5289 38.598 15.7178C38.9426 15.9067 39.2442 16.1694 39.4827 16.4882C38.4892 17.5194 37.9314 18.9147 37.9314 20.3693C37.9314 21.8238 38.4892 23.2191 39.4827 24.2503L50.9671 36.1397C52.0045 37.1721 53.3891 37.7489 54.8299 37.7489C56.2706 37.7489 57.6552 37.1721 58.6926 36.1397L60.0406 37.5315C60.3566 37.7865 60.5804 38.1438 60.6758 38.546L60.6836 38.5727C60.795 38.9046 60.9324 39.3061 61.1502 39.8281L61.342 40.2938H58.8948C57.3912 40.2938 56.1727 41.5518 56.1727 43.1042C56.1802 43.8472 56.4693 44.5576 56.9782 45.083C57.4871 45.6084 58.1751 45.9069 58.8948 45.9146H63.6752L65.0518 49.2336H63.0167C61.5131 49.2336 60.2947 50.4916 60.2947 52.044C60.3021 52.787 60.5913 53.4974 61.1002 54.0228C61.609 54.5482 62.2971 54.8467 63.0167 54.8544H67.385L68.9715 58.6819H66.4387C64.9351 58.6819 63.7167 59.9399 63.7167 61.4923C63.7167 62.2686 64.0278 62.9645 64.5203 63.473C65.0129 63.9816 65.6869 64.276 66.4387 64.3028H71.3047L74.2419 71.385C75.5984 73.7384 77.6103 75.6151 80.0153 76.7703L80.023 76.7757C81.327 77.5974 83.7509 79.123 83.8158 79.8859C83.8158 80.0357 83.6732 80.4934 83.0251 81.2429C78.5942 80.6711 74.2453 79.5551 70.0707 77.9186C62.4438 74.8887 54.5602 69.5061 51.6178 59.9828L51.6153 59.9774C50.5653 56.6049 48.1984 52.6783 45.4556 48.8348C45.3618 48.7043 45.2676 48.574 45.1731 48.444V48.444ZM16.3142 36.4957C16.25 36.4145 16.2149 36.3128 16.2149 36.208C16.2149 36.1031 16.25 36.0015 16.3142 35.9202L22.1083 29.9354C25.6049 33.4741 29.0024 37.1157 32.2965 40.8559C35.4256 44.4157 38.6376 48.3102 41.2793 52.0092C43.9598 55.7645 45.8964 59.1075 46.6767 61.6101C46.7967 62.0009 46.9246 62.3891 47.0604 62.7744L16.3194 36.5011L16.3142 36.4957Z" fill="#FAFAFA"/>
</svg>
