<svg width="267" height="64" viewBox="0 0 267 64" fill="none" xmlns="http://www.w3.org/2000/svg">
<rect width="267" height="64" rx="10" fill="#242424"/>
<path d="M24.4417 17.6301C24.3507 17.6884 24.2664 17.7565 24.1901 17.8333L19.9332 22.1171C19.3402 22.715 19.005 23.5238 19.0001 24.3685C18.9951 25.2132 19.3209 26.0258 19.9068 26.6307L19.9346 26.6601L20.0663 26.8058L20.5724 27.3564C21.0113 27.8319 21.6418 28.5165 22.42 29.3497C24.4114 31.4848 26.4249 33.5988 28.4602 35.6916C33.0946 40.451 38.6608 45.8963 41.9771 48.1399C45.7118 50.6778 49.1057 52.1072 51.5838 52.9036C52.8243 53.3011 53.8337 53.5425 54.5461 53.6839C54.8991 53.7546 55.2543 53.814 55.611 53.862L55.6622 53.8679C56.6497 54.0254 57.523 54.0534 58.2998 53.89C59.0643 53.7384 59.766 53.3594 60.3142 52.8021L61.3382 51.7716C61.4142 51.695 61.4801 51.6111 61.5371 51.5228C61.9987 51.1014 62.3673 50.5874 62.6193 50.0138C62.8712 49.4403 63.0009 48.82 63 48.1929C62.8288 46.2894 61.0441 45.1897 59.4642 44.2181C58.6691 43.8215 57.9593 43.2712 57.3753 42.5988L56.2123 39.8665H56.2225C56.6299 39.8665 57.0206 39.7037 57.3087 39.4138C57.5967 39.1239 57.7585 38.7307 57.7585 38.3208C57.7585 37.9108 57.5967 37.5177 57.3087 37.2278C57.0206 36.9379 56.6299 36.7751 56.2225 36.7751H54.8957L53.9536 34.561C54.2861 34.4283 54.5621 34.1829 54.7341 33.8673C54.9061 33.5516 54.9631 33.1855 54.8955 32.832C54.8279 32.4785 54.6398 32.1599 54.3637 31.931C54.0876 31.7022 53.7408 31.5775 53.3831 31.5785H52.6839L51.9056 29.7516C52.3074 29.734 52.6863 29.5585 52.9609 29.2629C53.2356 28.9673 53.384 28.5751 53.3745 28.1705C53.3649 27.7659 53.198 27.3812 52.9097 27.0991C52.6214 26.817 52.2346 26.6599 51.8325 26.6616H50.5905L49.9892 25.2483C49.8985 25.0275 49.843 24.8685 49.7961 24.7331C49.6011 24.0899 49.2372 23.5117 48.7429 23.0593L47.9822 22.2923C47.6316 21.9527 47.2075 21.6997 46.7431 21.5533V20.8909C45.8289 18.1159 42.4935 17.1487 40.2568 18.8372L37.1438 15.6427C37.4237 15.3585 37.645 15.0214 37.795 14.6508C37.945 14.2802 38.0207 13.8835 38.0179 13.4833C38.015 13.0832 37.9336 12.6876 37.7783 12.3192C37.6231 11.9508 37.397 11.6169 37.1131 11.3368C36.2595 10.4807 35.1035 10 33.8984 10C32.6933 10 31.5374 10.4807 30.6838 11.3368L24.4417 17.6301ZM38.2834 31.1442L38.2878 30.0475C38.2878 27.5449 37.3223 25.16 35.5961 23.3787L29.2911 16.9073L32.7508 13.4213C32.9062 13.2643 33.0931 13.1425 33.2989 13.064C33.5048 12.9855 33.725 12.9521 33.9447 12.966C34.1644 12.9799 34.3787 13.0409 34.5732 13.1448C34.7676 13.2487 34.9378 13.3931 35.0724 13.5685C34.5117 14.1357 34.197 14.9031 34.197 15.7031C34.197 16.5031 34.5117 17.2705 35.0724 17.8377L41.5529 24.3768C42.1382 24.9446 42.9196 25.2619 43.7326 25.2619C44.5456 25.2619 45.3269 24.9446 45.9122 24.3768L46.6729 25.1423C46.8512 25.2826 46.9775 25.4791 47.0313 25.7003L47.0357 25.715C47.0986 25.8975 47.1762 26.1184 47.299 26.4054L47.4073 26.6616H46.0263C45.1779 26.6616 44.4903 27.3535 44.4903 28.2073C44.4945 28.616 44.6577 29.0067 44.9448 29.2956C45.232 29.5846 45.6203 29.7488 46.0263 29.753H48.7239L49.5006 31.5785H48.3523C47.5038 31.5785 46.8163 32.2704 46.8163 33.1242C46.8205 33.5328 46.9837 33.9236 47.2708 34.2125C47.558 34.5015 47.9462 34.6657 48.3523 34.6699H50.8172L51.7125 36.7751H50.2833C49.4348 36.7751 48.7473 37.467 48.7473 38.3208C48.7473 38.7477 48.9228 39.1305 49.2008 39.4102C49.4787 39.6899 49.8591 39.8518 50.2833 39.8665H53.0291L54.6865 43.7618C55.4519 45.0561 56.5873 46.0883 57.9443 46.7237L57.9487 46.7266C58.6845 47.1786 60.0523 48.0177 60.0889 48.4372C60.0889 48.5197 60.0084 48.7714 59.6427 49.1836C57.1424 48.8691 54.6884 48.2553 52.3328 47.3552C48.029 45.6888 43.5804 42.7283 41.9201 37.4905L41.9186 37.4876C41.3261 35.6327 39.9905 33.4731 38.4428 31.3591C38.3899 31.2873 38.3367 31.2157 38.2834 31.1442V31.1442ZM21.9987 24.5726C21.9625 24.528 21.9427 24.4721 21.9427 24.4144C21.9427 24.3567 21.9625 24.3008 21.9987 24.2561L25.2682 20.9645C27.2414 22.9107 29.1585 24.9136 31.0173 26.9707C32.783 28.9286 34.5955 31.0706 36.0861 33.1051C37.5988 35.1704 38.6915 37.0091 39.1318 38.3856C39.1996 38.6005 39.2718 38.814 39.3483 39.0259L22.0017 24.5756L21.9987 24.5726Z" fill="#FAFAFA"/>
<path d="M110.008 13.0547L115.656 51H105.555L105.062 44.1797H101.523L100.938 51H90.7188L95.7344 13.0547H110.008ZM104.781 37.4531C104.281 33.1562 103.781 27.8516 103.281 21.5391C102.281 28.7891 101.656 34.0938 101.406 37.4531H104.781ZM117.344 13.0547H124.727C129.492 13.0547 132.711 13.2734 134.383 13.7109C136.07 14.1484 137.352 14.8672 138.227 15.8672C139.102 16.8672 139.648 17.9844 139.867 19.2188C140.086 20.4375 140.195 22.8438 140.195 26.4375V39.7266C140.195 43.1328 140.031 45.4141 139.703 46.5703C139.391 47.7109 138.836 48.6094 138.039 49.2656C137.242 49.9062 136.258 50.3594 135.086 50.625C133.914 50.875 132.148 51 129.789 51H117.344V13.0547ZM127.211 19.5469V44.5078C128.633 44.5078 129.508 44.2266 129.836 43.6641C130.164 43.0859 130.328 41.5312 130.328 39V24.2578C130.328 22.5391 130.273 21.4375 130.164 20.9531C130.055 20.4688 129.805 20.1172 129.414 19.8984C129.023 19.6641 128.289 19.5469 127.211 19.5469ZM153.742 13.0547V51H143.875V13.0547H153.742ZM157.703 13.0547H165.086C169.852 13.0547 173.07 13.2734 174.742 13.7109C176.43 14.1484 177.711 14.8672 178.586 15.8672C179.461 16.8672 180.008 17.9844 180.227 19.2188C180.445 20.4375 180.555 22.8438 180.555 26.4375V39.7266C180.555 43.1328 180.391 45.4141 180.062 46.5703C179.75 47.7109 179.195 48.6094 178.398 49.2656C177.602 49.9062 176.617 50.3594 175.445 50.625C174.273 50.875 172.508 51 170.148 51H157.703V13.0547ZM167.57 19.5469V44.5078C168.992 44.5078 169.867 44.2266 170.195 43.6641C170.523 43.0859 170.688 41.5312 170.688 39V24.2578C170.688 22.5391 170.633 21.4375 170.523 20.9531C170.414 20.4688 170.164 20.1172 169.773 19.8984C169.383 19.6641 168.648 19.5469 167.57 19.5469ZM194.102 13.0547V51H184.234V13.0547H194.102ZM221.57 13.0547L215.922 30.1875L222.109 51H211.914L207.93 34.7344V51H198.062V13.0547H207.93V27.7969L212.312 13.0547H221.57ZM223.844 13.0547H240.297V20.6484H233.711V27.8438H239.875V35.0625H233.711V43.4062H240.953V51H223.844V13.0547Z" fill="#FAFAFA"/>
</svg>
